<?xml version="1.0" encoding="UTF-8"?>
<!DOCTYPE svg PUBLIC "-//W3C//DTD SVG 1.1//EN" "http://www.w3.org/Graphics/SVG/1.1/DTD/svg11.dtd">
<!-- Creator: CorelDRAW X7 -->
<svg xmlns="http://www.w3.org/2000/svg" xml:space="preserve" width="80.4893mm" height="22.4662mm" version="1.1" style="shape-rendering:geometricPrecision; text-rendering:geometricPrecision; image-rendering:optimizeQuality; fill-rule:evenodd; clip-rule:evenodd"
viewBox="0 0 791 221"
 xmlns:xlink="http://www.w3.org/1999/xlink">
 <defs>
  <style type="text/css">
   <![CDATA[
    .fil0 {fill:white}
    .fil1 {fill:white;fill-rule:nonzero}
   ]]>
  </style>
 </defs>
 <g id="Capa_x0020_1">
  <metadata id="CorelCorpID_0Corel-Layer"/>
  <g>
   <path class="fil0" d="M76 219l1 -2 -2 0c1,-1 4,-2 4,-2 1,0 2,0 2,-2 0,-1 -1,-2 0,-2 0,-1 0,-1 1,-1 1,-1 2,-2 3,-2 0,0 1,1 1,1 -1,0 -3,1 -3,2 -2,1 0,3 0,4 0,1 -2,2 -3,2l-4 2zm100 -134l0 0 0 0 0 1 0 0c0,2 0,3 0,5 0,5 -1,8 -3,12l-1 3c-1,1 -2,2 -2,3 0,1 0,2 0,3l0 0c0,-1 0,-1 0,-1 1,-1 2,-2 3,-4 0,-1 1,-2 2,-2 0,-1 0,-1 1,-1 0,0 0,1 0,1 -1,3 -2,6 -2,9 -1,5 -2,10 -3,15 -1,2 -1,4 -2,5 0,1 0,1 -1,2 0,0 0,0 -1,1 0,0 0,3 0,4 0,0 -1,1 -1,2 1,0 1,0 1,0 1,-1 2,-2 3,-3 0,1 0,1 0,2l-1 4c1,0 2,-1 3,-2 0,0 0,0 0,0 0,0 0,2 0,2 -3,7 -5,11 -9,16 0,0 0,1 0,1l-2 2c-1,1 -2,2 -3,3 0,0 -1,1 -2,2l-3 2c1,0 2,0 3,-1 1,0 2,-1 3,-1 0,1 0,2 -1,3 0,1 -1,2 -1,3 -1,2 -2,3 -4,5 -2,2 -5,3 -8,4 -1,0 -2,0 -4,0 0,0 0,0 0,0l-1 1c0,0 0,0 0,0 0,1 -1,1 -1,2l2 -1c2,-1 4,-2 5,-2l7 -2c0,0 1,0 2,0 0,0 0,0 -1,0l-1 2c-3,2 -5,4 -8,5 -2,1 -5,2 -7,3 -1,0 -1,0 -2,0 -3,0 -2,0 -4,1l-1 1c2,0 6,1 8,2 1,0 1,0 1,0 0,0 0,0 -1,0 -1,0 0,0 -2,1 -2,0 -4,1 -6,2l-6 3c-2,1 -1,0 -4,1 -1,0 -1,0 -2,0l-6 0c-1,1 -2,1 -3,1 -4,0 -8,1 -12,2 0,0 -1,0 -1,0 -1,0 -1,0 -2,0 0,1 0,0 1,1 8,1 17,3 25,5 0,0 0,0 1,0 -2,0 -3,0 -4,0 -1,0 0,1 -1,3 0,0 -1,-1 -1,-1 -2,-1 -6,-2 -8,-2l-9 -2c0,0 -1,-1 -1,-1 0,1 -2,2 1,3l5 2c0,1 -1,1 -1,1 -1,0 -2,0 -2,1 1,0 1,3 1,3l-2 -1c-1,0 -2,-1 -3,-1l-4 -2c0,-1 -1,-1 -1,-2 -1,-2 3,-2 0,-4 -1,0 -1,0 -1,0 -1,0 -1,0 -1,0 -3,1 -4,0 -4,0 -4,2 -2,4 -2,6 0,0 0,0 -1,0 0,1 -1,1 -1,1 0,1 -1,1 -2,1l-4 3c0,-1 0,-3 0,-4 0,0 -1,-1 -2,-1 1,0 2,-1 2,-1 1,0 3,-1 4,-2 0,-1 -1,-1 -1,-2l-2 1c-2,1 -5,1 -7,2 -2,0 -4,2 -6,2l-2 1c0,0 3,-2 1,-3 -1,-1 -3,-1 -4,-1 0,0 5,-1 5,-1 1,0 18,-4 18,-4l0 -1c0,0 0,0 -1,0 0,0 0,0 0,0 -6,-1 -14,-2 -20,-2 0,0 0,0 0,0 -1,0 -2,0 -3,0 -4,-1 -3,0 -6,-1 -1,-1 -2,-1 -3,-1l-7 -4c-4,-2 -2,-1 -5,-1 1,0 1,0 1,-1 2,0 2,0 4,-1 1,0 4,-1 5,-1l-2 0c0,-1 -1,-1 -1,-1 -4,0 -7,-1 -10,-2 -3,-1 -6,-3 -8,-5l-4 -3c0,0 0,0 0,0 1,0 1,0 1,0 3,0 6,1 8,1 2,1 3,1 4,2l4 2c0,-1 -1,-1 -1,-2l-1 -1c-1,0 -1,0 -1,0 -2,0 -2,0 -4,-1 -4,0 -8,-3 -10,-6 -1,0 -1,-1 -1,-1 -1,-1 -2,-3 -2,-4l-1 -3c0,0 0,0 0,0 0,0 1,0 1,0 1,0 1,1 2,1 0,0 3,1 3,1l-1 -1c-3,-3 -6,-5 -8,-8 0,0 0,0 0,0 -1,-1 -2,-2 -3,-3 0,-1 -1,-2 -1,-2 -3,-4 -5,-8 -6,-13 -1,0 -1,-1 -1,-2l2 2c1,0 1,0 1,0 0,0 0,0 0,-1 0,-1 0,-3 0,-4 0,0 0,0 1,0 0,1 0,1 0,1 1,0 2,1 2,2 0,-1 0,-2 0,-2 0,-1 0,-2 -1,-4 0,-1 0,-1 0,-2 -2,-2 -3,-4 -3,-6 -2,-7 -4,-17 -5,-24 0,-1 0,-1 0,-2 0,0 0,0 1,1 0,0 0,0 0,0 0,0 0,0 0,1 1,1 2,2 3,4 1,0 1,2 2,2 -1,-1 -1,-2 -1,-3 0,-1 -4,-6 -5,-15 -1,-2 -1,-4 -1,-6 0,0 0,0 0,0l0 -3c0,-1 0,-2 0,-3 0,0 0,-1 0,-1 0,-1 0,-1 0,-1 1,-2 1,-4 1,-6 0,0 1,-2 1,-2 0,0 0,1 0,1l2 4c0,1 0,2 0,3l1 2c0,0 1,-1 1,-2 1,-3 2,-5 3,-8 1,0 1,-1 1,-1 0,1 0,1 1,2 0,1 1,7 1,8l0 0c0,-1 0,-1 0,-2 0,-1 0,-1 0,-2 1,-1 1,-2 1,-4 0,-4 0,-3 -1,-5 0,-1 0,-1 -1,-2 0,-2 -1,-5 0,-7l0 -4c0,-1 0,-3 0,-4 0,0 0,0 1,1 1,1 3,3 4,5 0,0 0,1 0,1 0,0 0,1 0,1l0 1c1,-1 1,-3 1,-4 1,-2 2,-4 3,-6l2 -3c0,0 0,0 0,1l1 4c0,1 0,1 0,2 1,1 1,2 1,3 0,0 0,0 0,1l1 -1c2,-2 5,-2 7,-2 0,0 -1,1 -1,1 -1,0 -1,0 -1,1 -1,1 -2,3 -3,4 0,1 0,2 -1,2 -1,3 -2,6 -3,8 -1,1 -1,1 -1,1l-4 4c-1,1 -2,1 -2,2l-1 3c0,1 0,1 0,1 0,1 -1,1 -1,2l4 -6c0,0 0,0 0,0 0,1 -1,6 -1,7l3 -3c0,0 0,0 0,-1 0,0 1,0 1,0 0,-1 0,-1 0,-1 1,0 2,-2 2,-2l0 3c-1,4 -4,9 -7,12 -1,1 0,1 -1,2 -1,5 -1,8 -3,13 -1,0 -1,2 0,3l0 2c1,-1 1,-3 1,-4 2,-2 3,-3 6,-3 1,-1 2,-1 4,-1 -1,1 -1,1 -1,2 -1,2 -1,5 -1,7 0,6 -1,7 -3,11l-2 4c-1,2 -1,3 -2,6 -1,3 0,3 0,5l-1 0c0,0 0,0 1,1 1,0 2,2 3,3l1 2c0,-1 2,-3 3,-4l1 -2c1,0 1,-1 1,-1 0,0 1,0 1,-1 0,4 0,7 0,11 0,1 1,1 0,2 0,1 0,2 0,3l0 2c0,1 0,1 0,2 0,1 -1,2 -1,2 0,1 2,5 2,6 1,1 3,5 5,6 0,0 -1,-3 -2,-4 1,0 1,1 2,1l2 3c0,0 1,1 1,2 0,-3 1,-5 1,-7l1 -2c0,0 1,2 1,2l4 6c2,2 3,5 4,7 1,3 1,5 1,7 1,1 3,3 4,4l1 1c1,0 2,2 3,3 2,2 0,0 3,1 1,0 2,1 3,1l2 1c0,0 -1,-2 -1,-2l-2 -4c-1,-2 -3,-5 -3,-8 0,-3 1,-3 1,-2 0,0 1,0 1,0 2,1 4,3 6,4 2,3 4,5 6,8 0,0 1,1 1,1 0,0 1,-1 2,-2 1,0 1,-1 2,-1 0,0 1,0 1,0 0,-1 0,-1 1,-1 -1,-1 -1,0 0,-1 2,-3 9,-4 12,-4l5 0c1,0 2,0 4,1 1,0 4,2 4,4 0,0 0,0 0,1 0,0 0,0 1,0 1,1 3,1 4,2 1,1 1,2 0,2l-1 -1c-1,0 -1,0 -2,-1 -1,0 -2,-1 -3,-1 0,-1 1,-1 -2,-3 -1,-1 -2,-1 -4,-2 -3,-1 -7,-1 -10,0 -3,0 -6,2 -7,4l-1 0c0,1 0,0 -1,1 -1,1 -4,2 -5,3l1 2c0,0 1,-1 1,-1 3,-2 5,-2 6,-3l0 -1c0,0 2,-2 4,-2 5,-2 10,-1 15,1 1,0 2,1 2,1 0,1 0,1 0,1 0,0 1,1 1,1 2,0 3,1 4,2 1,0 1,0 2,1l0 -1c0,0 1,0 1,-1 0,0 1,-1 1,-1 1,-2 2,-3 3,-5l2 -2c1,0 1,-1 1,-1 1,0 1,-1 1,-1l3 -2c0,-1 4,-3 5,-3 0,0 0,1 0,2 -1,4 -2,7 -4,11 -1,1 -1,2 -2,3 1,0 1,0 1,0 1,-1 1,-1 1,-1 1,0 2,0 3,-1 1,0 2,0 2,0 1,-1 1,-1 2,-2l4 -4c0,0 0,0 0,0 1,-1 2,-2 3,-2 0,-3 0,-5 1,-7 0,-2 1,-3 2,-5l1 -2c1,-1 5,-9 6,-9 0,0 0,2 0,2 1,2 1,4 1,7 0,0 1,-1 1,-1 1,-1 1,-1 1,-2 1,0 1,-1 2,-1 0,-1 0,-1 1,-2 0,1 -1,3 -1,4 0,0 0,0 0,1 0,-1 1,-1 1,-2 0,-1 1,-1 1,-2 1,-1 1,-2 2,-3l1 -3c0,-1 1,-2 1,-2 0,-1 0,-1 0,-1 -1,-2 -1,-4 -1,-6 0,0 0,-1 0,-1 0,-1 0,-3 0,-4l0 -7c0,-1 0,-2 0,-3 0,0 1,1 1,1 1,1 3,3 4,5 0,0 1,1 1,2 0,-1 3,-4 3,-5 1,-1 1,-1 1,-2 0,0 0,0 0,0 0,0 0,-1 0,-2 0,-1 0,-2 0,-3 -1,-1 -1,-3 -2,-4 0,-1 -1,-2 -1,-2 0,-1 -1,-2 -1,-4 -2,-3 -2,-3 -3,-7l0 -2c0,-1 0,-1 0,-2 0,0 0,-1 0,-1l0 -5c0,-1 0,-1 -1,-2 0,-1 0,-2 0,-3 0,-1 -1,-1 -1,-2 1,0 3,1 4,1 3,1 5,3 7,6l0 2c0,-1 0,-1 0,-2l-2 -4c0,-2 -1,-4 -1,-6 -1,-2 0,-2 -1,-3l-2 -3c-1,-2 -3,-4 -4,-6 0,-1 0,-2 0,-2 -1,-1 -1,-3 -1,-5l2 3c1,1 3,3 4,4 0,-1 0,-1 0,-2 0,0 -1,-1 -1,-2 0,-1 0,-2 0,-3 0,0 1,2 2,3l1 3c0,0 0,0 0,0 0,-1 -1,-4 -1,-5 -1,-2 0,-1 -2,-2 0,-1 0,-1 0,-1 -2,-1 -3,-2 -4,-4 -4,-5 -4,-10 -7,-14l-1 -2c-1,0 -1,0 -1,-1 -1,0 -1,0 -1,0 0,0 0,0 0,0 1,0 2,0 3,0 3,1 4,2 5,3 0,-6 2,-9 2,-10l0 0c0,0 1,2 2,3 0,0 0,0 0,0l1 2c0,0 0,0 0,0 1,2 2,5 2,7l1 -1c0,0 0,0 0,0 0,-1 0,-1 0,-1 0,0 0,0 0,-1 1,-1 1,-1 2,-2l1 -1c0,-1 1,-2 2,-3 0,1 0,7 0,8 0,3 0,5 -1,8 -1,3 -1,1 -1,5 0,1 0,2 0,3 0,1 0,3 1,4 0,1 0,2 0,2l0 0c0,-1 0,-2 0,-2l1 -5c0,-1 0,-2 0,-3l1 0c0,0 0,1 0,1l2 4c1,1 1,2 1,3 1,1 1,3 1,3l0 0c1,-2 3,-9 4,-10l0 0c0,1 0,1 0,1l1 4c0,2 0,3 0,4 0,1 0,2 0,3 0,0 0,0 0,1zm-104 114c0,-1 0,-1 0,-1 1,1 1,1 2,1 1,2 7,4 9,5 1,1 2,1 3,2 1,0 1,0 1,2 -1,0 -1,0 -1,-1 -3,-1 -8,-3 -11,-5 -1,-1 -3,-2 -3,-3zm29 18l1 1 -4 -2c-2,0 -3,-1 -4,-1 -2,-2 1,-2 0,-4 0,-1 0,-1 0,-1 -1,-1 -2,-1 -3,-2l0 0c1,-1 0,-1 0,-2 1,0 6,-3 7,-3 2,-2 3,-2 5,-4 0,0 0,0 1,-1l1 0c0,2 -9,7 -11,8 -1,1 -1,1 -2,1l3 2c1,1 2,1 2,2 0,0 -1,1 -1,1 -1,2 0,2 2,3 2,0 3,1 4,1l-1 1 0 0zm-40 -19l0 0zm41 -1c0,1 -1,3 -2,3 -2,1 -6,3 -8,4 -1,1 -1,1 -2,1 -1,-1 -1,-1 -3,0l0 0c-1,0 -1,0 -2,-1 -1,0 -3,-1 -4,-2 -2,-1 -7,-3 -7,-5 0,0 0,0 0,0 1,0 1,-1 1,-1 0,0 0,0 0,0 2,0 4,-1 5,-1 1,0 1,0 1,-1 0,0 -1,0 -1,-1 0,0 3,-1 4,-1 1,0 1,-1 2,-1 2,0 4,0 7,1 1,0 3,1 3,1 0,0 -1,1 -1,1 0,1 0,1 1,1 1,0 4,1 5,2 1,0 1,0 1,0zm-63 -8l0 0zm99 -1l0 0zm1 0l-1 0 1 0zm-115 -15l0 0zm6 -1l0 0zm132 -88c0,0 0,0 0,0l0 0zm0 0l0 0 0 0zm-148 0l0 0c0,0 0,0 0,0zm0 0l0 0 0 0zm23 -49l0 0c-3,1 -3,1 -5,3 0,0 0,0 0,0 0,0 0,0 0,-1 0,0 1,-1 1,-2 1,0 2,0 3,0 0,0 1,0 1,0zm0 0c0,0 0,0 0,0 0,0 0,0 0,0zm0 0l0 0 0 0zm0 -1l1 1c0,0 -1,0 -1,-1zm2 0l0 0c0,0 0,0 0,0zm1 0c0,0 0,0 0,0 0,0 -1,0 0,0zm7 -11l0 0zm-8 -3l0 0 0 0zm13 -8l0 0zm0 0l0 0 0 0zm0 0c0,-1 0,-1 0,-2l-2 1c-2,1 -4,2 -5,3l-1 1c-1,0 -2,1 -2,2 -2,1 -2,2 -3,3 0,0 1,-2 1,-2l2 -7c-1,1 -3,3 -3,3 -1,1 -1,2 -2,3 -1,2 -3,4 -4,6 0,1 -1,3 -1,4l-1 3c-1,1 0,1 -1,2 -1,1 -2,3 -2,3l-1 2c0,-3 -1,-6 -1,-9 0,0 -2,3 -3,4 -3,6 -2,13 0,19 1,0 1,0 1,1 0,0 0,0 0,0 0,0 1,-1 1,-1 1,0 1,0 2,0 0,-1 0,-1 0,-1 0,0 0,0 1,0l3 -2c0,0 0,0 0,0 0,0 0,0 0,0l3 -3c3,-4 6,-7 9,-11 0,-1 0,-1 1,-1 -1,0 -4,1 -4,1 0,0 0,0 0,0l2 -1c1,-1 1,-1 1,-1 4,-2 4,-3 7,-5l4 -3c1,0 1,0 1,-1 1,0 1,0 1,0 0,0 -1,0 -2,-1 -1,0 -2,0 -3,1l-4 0c0,0 0,0 0,0 1,-1 1,-1 1,-1l1 -1c1,-1 2,-2 4,-3 0,-1 0,-1 1,-1 1,0 3,1 3,1 1,0 5,-1 6,-1l3 -1c1,0 3,0 4,-1l3 -1 0 0c-1,-1 -3,-1 -5,-2l-2 0c0,0 0,0 0,0 3,0 6,-1 8,-1 1,0 3,0 4,-1l4 0c0,-2 -3,-3 -4,-4 -1,0 -2,0 -3,0 1,0 2,-1 2,-2 1,0 4,-2 4,-3 -2,0 -2,0 -4,0 0,0 0,0 -1,0 -5,1 -8,3 -12,6 -1,0 -1,0 -1,1 0,-1 0,-1 0,-1l1 -3c1,-1 1,-3 1,-4 -1,1 -2,2 -3,3 -2,1 -5,3 -6,5 -1,0 -1,0 -1,0l-3 4zm87 9l0 0 0 0zm-10 -5l0 0zm0 0l0 0 0 0zm10 5c0,0 -1,-1 -1,-2 -2,-2 -4,-5 -7,-6 -1,0 -4,-2 -4,-2 0,1 2,4 2,5l-4 -4c0,-1 -1,-2 -1,-2l-7 -6c0,0 -1,-1 -2,-1 0,-1 0,-1 -1,-1 0,-1 -1,-1 -1,-1 0,1 2,6 2,7 0,0 0,0 0,0 -1,0 -1,-1 -1,-1 -1,-1 -3,-1 -4,-2 -2,-1 -4,-2 -6,-3 -1,0 -5,0 -6,0 0,1 2,2 3,2 1,1 2,2 2,3 -1,0 -2,0 -4,1 0,0 -2,2 -2,3 1,0 6,1 7,1 2,0 3,0 4,0 1,0 3,1 4,1l0 0c-1,0 -3,0 -4,1l-2 1c0,0 -1,0 -1,0 1,0 1,0 2,0l5 2c4,1 8,2 12,1 1,0 1,0 1,0 1,1 2,2 3,3 1,0 1,1 2,1 -2,0 -5,0 -7,0 0,0 -1,0 -2,0 0,0 3,2 4,3 3,3 8,6 12,8 2,1 5,2 7,1 1,1 1,3 2,4 0,0 0,0 1,0 0,0 0,2 0,2l-2 -2c-1,0 -1,-1 -2,-1 -2,-1 -3,-2 -5,-3 -1,0 -3,0 -4,-1 0,1 1,1 1,2 0,0 1,1 1,1l2 3c2,3 4,5 7,8 1,1 2,2 3,3 0,0 0,0 1,0 0,0 0,0 0,0 1,1 2,1 3,2 0,0 1,0 1,1l0 0c1,-2 1,-2 1,-3 2,-5 2,-11 0,-15 0,-1 0,-2 -1,-3 0,-1 -2,-3 -2,-4 -1,1 0,3 0,4 0,0 0,0 0,1 0,2 -1,3 -1,5 0,-1 0,0 0,-1l-1 -2c-1,-2 -1,0 -1,-4 -1,-2 -1,-3 -2,-4 0,-1 0,-2 -1,-4 0,0 0,0 0,0 -1,-2 -3,-5 -4,-6 0,-1 -2,-2 -3,-4 0,0 0,0 0,0 -1,-1 -1,-1 -1,-1 0,0 0,1 0,1l2 7c0,0 0,1 0,1zm-82 193c1,0 1,1 1,1 0,1 -1,1 1,2 1,0 1,1 2,0 0,-1 3,-2 1,-3 -1,0 -1,0 -2,0 0,0 -2,0 -3,0zm61 -1c0,1 0,2 0,3 1,0 2,0 3,0 0,-1 0,-1 0,-2 1,0 1,0 1,-1l-2 0c-1,0 -2,0 -2,0zm-72 -135c0,0 0,1 0,1 0,0 0,-1 0,-1zm0 1l0 0 0 0zm86 61l0 0c-1,1 -1,2 -2,3 0,0 -1,0 -1,-1 -1,-1 -1,-2 -2,-3 0,1 0,1 -1,2 0,0 0,0 -1,0 1,-1 1,-2 2,-4 0,1 1,1 1,1 1,1 1,2 2,4 0,-1 1,-2 1,-3 0,0 1,0 1,0l0 1zm-6 7l0 0c-1,-1 -2,-1 -3,-2 0,0 0,-1 1,-1 1,1 2,2 3,2 0,0 1,-1 1,-1 0,-1 -1,-1 -1,-1 -1,-1 -2,-1 -2,-2 0,0 0,0 0,0 1,0 2,1 3,2 2,1 0,4 -2,3zm0 2l0 0c-1,0 -2,0 -3,1 1,0 2,1 2,1 0,0 0,1 0,1 -1,0 -1,-1 -2,-1 -1,-1 -2,-1 -3,-2 1,0 1,-1 2,-2 1,-1 2,-1 2,0 0,0 0,1 0,1 1,0 2,0 3,0 0,1 0,1 -1,1zm-4 7l0 0c-2,0 -3,-1 -4,-2 0,-2 2,-4 3,-3 0,0 0,0 0,1 -1,0 -2,0 -2,0 0,1 1,2 1,2 1,1 2,1 2,0 1,0 0,-1 0,-1 0,0 1,-1 1,-1 1,1 0,3 -1,4zm-3 3l0 0c-1,0 -1,0 -1,-1 -1,1 -1,1 -2,2 0,0 1,1 1,1 -1,0 -1,0 -1,1 -1,-2 -2,-4 -2,-5 0,-1 0,-1 1,-1 1,1 3,1 5,2 -1,0 -1,1 -1,1zm-5 4l0 0c-1,-1 -2,-2 -3,-3 0,0 -1,0 -1,1 0,0 0,-1 -1,-1 2,-1 3,-2 4,-2 0,0 0,0 0,0 0,1 -1,1 -1,1 1,1 2,2 3,4 -1,0 -1,0 -1,0zm-4 2l0 0c-1,0 -2,-1 -3,-1 0,1 1,2 1,2 0,1 0,1 0,1 -1,-2 -2,-3 -3,-4 0,-1 1,-1 1,-1 1,1 2,1 3,2 0,-1 -1,-2 -1,-3 0,0 1,-1 1,0 1,1 2,3 2,4 0,0 0,0 -1,0zm-4 3l0 0c-1,0 -1,0 -1,-1 -1,1 -2,1 -2,1 0,1 0,1 0,1 0,1 -1,1 -1,1 0,-2 -1,-4 -1,-6 1,0 1,0 1,0 2,1 3,2 5,4 -1,0 -1,0 -1,0zm-6 2l0 0c-1,1 -2,1 -3,1 0,0 -1,-1 -1,-1 0,0 1,0 1,-1 0,1 1,1 2,1 0,0 1,-1 0,-1 -1,0 -2,0 -3,-1 0,0 -1,-1 0,-2 1,0 2,-1 2,-1 1,0 2,1 2,2 0,0 -1,0 -1,0 0,0 -1,-1 -1,-1 0,0 -1,1 -1,1 0,0 0,0 0,0 1,1 2,0 3,1 1,0 1,2 0,2zm-7 2l0 0c-2,0 -3,0 -5,0 0,-2 0,-3 0,-5 2,0 3,0 4,0 0,0 0,0 0,1 -1,0 -2,0 -3,0 0,0 0,1 0,1 1,0 2,0 3,0 0,0 0,0 0,1 -1,0 -2,0 -3,0 0,0 0,1 0,1 2,0 3,0 4,0l0 1zm-6 -2l0 0c0,1 0,2 -1,2 -2,0 -3,0 -4,0 0,-2 1,-4 1,-6 1,0 2,0 3,1 1,0 2,1 1,3zm-10 1l0 0c0,-1 0,-1 0,-2 -1,0 -2,0 -2,0 -1,0 -1,0 -1,1 -1,-1 -1,-1 -1,-1 1,-1 2,-2 3,-4 0,0 0,0 1,0 0,0 0,0 1,0 0,2 0,4 0,6 0,0 -1,0 -1,0zm-6 -3l0 0c1,-1 1,-3 2,-5 1,0 1,1 1,1 0,0 0,0 0,1 -1,1 -1,2 -2,4 0,0 -1,0 -1,-1zm-2 -2l0 0c0,0 0,0 1,0 0,0 0,0 1,0 -1,1 -2,1 -2,1 -2,0 -3,-1 -3,-3 1,-1 1,-2 3,-3 1,0 3,2 3,3 -1,0 -1,0 -1,0 0,0 0,-1 -1,-1 0,-1 -1,-1 -1,0 -1,0 -1,1 -2,1 0,1 1,2 2,2zm-5 -2l0 0c0,-2 0,-3 0,-4 -1,0 -1,1 -2,2 0,0 -1,0 -1,0 1,-2 2,-3 4,-5 0,0 0,1 0,1 0,1 0,3 0,4 1,-1 1,-2 2,-3 1,1 1,1 1,1 -1,2 -2,3 -3,4 -1,0 -1,0 -1,0zm-5 -4l0 0c2,-2 3,-3 4,-4 0,0 1,0 1,0 -1,2 -3,3 -4,5 0,-1 0,-1 -1,-1zm-2 -2l0 0c-1,-1 -1,-1 -1,-1 1,-2 2,-4 3,-6 0,1 0,1 0,1 0,2 -1,3 -2,4 2,0 3,-1 4,-2 1,1 1,1 1,1 -2,1 -3,2 -5,3zm-5 -8l0 0c0,-1 1,-2 2,-2 2,-1 4,2 3,4 0,1 -1,1 -2,2 -2,0 -4,-2 -3,-4zm-2 -2l0 0c0,-1 1,-2 1,-3 -1,0 -2,1 -2,1 -1,0 -1,0 -1,-1 1,-1 3,-2 5,-3 0,1 1,2 2,3 0,1 -1,2 -2,2 -1,0 -1,0 -1,0 0,1 -1,2 -1,2 -1,0 -1,0 -1,-1zm-4 -8l0 0 0 0c1,-1 3,-2 5,-2 0,1 1,2 1,3 0,1 -1,2 -3,1 0,0 0,-1 -1,-2 0,1 -1,1 -2,1 0,0 0,0 0,-1zm91 -17l-6 4 -4 -7c-1,5 -2,10 -4,16l3 -2c-19,45 -60,37 -75,1l0 0 0 0 4 1c-2,-5 -3,-10 -5,-15l-3 6 -6 -3c1,4 3,9 5,13l-3 1c17,46 70,51 91,0l-1 -1 0 0c2,-4 2,-9 4,-14zm8 -15l0 0c0,10 -2,20 -5,29 -4,9 -8,17 -14,23 -6,8 -13,13 -21,16 -5,2 -9,3 -14,4 -1,0 -1,0 -2,0l-1 0c0,0 -1,0 -1,0 -1,0 -1,0 -2,-1 -6,0 -12,-2 -18,-5 -7,-4 -13,-9 -18,-16 -7,-8 -11,-18 -14,-29 -2,-5 -3,-10 -3,-15 0,-3 -1,-6 -1,-9l73 1 0 0 41 -1c0,1 0,1 0,1 0,1 0,2 0,2zm-26 -12l0 0 0 0 -1 -1c0,0 0,0 0,0 0,0 0,1 1,1 0,0 0,0 0,0l0 0zm-87 -6l0 0c1,0 3,0 4,-1 2,-2 4,-2 6,-3 2,-2 4,-4 6,-5 1,0 2,0 3,0 1,0 1,0 2,0 1,-4 0,-7 2,-10 -1,0 0,2 0,2 0,1 0,2 0,3 0,2 0,4 -1,5 2,0 3,0 5,1 2,0 5,1 7,2 0,0 2,0 2,0 0,0 2,0 2,0 1,1 1,3 0,4 0,0 0,0 0,1 0,0 1,1 1,1 0,1 -1,1 0,1 0,1 1,0 1,0 1,-1 1,-2 1,-2 0,-1 1,-2 1,-3 0,0 0,-1 0,-2 0,-1 0,-2 0,-3 -1,-1 0,-2 0,-3 1,-5 -1,-9 -2,-14 0,0 0,-5 1,-5 0,0 0,1 0,2 1,4 1,9 2,14 0,0 0,3 0,3 0,1 0,2 0,3 0,1 0,2 0,3 0,1 1,0 1,0 0,-1 0,-1 0,-2 0,-1 1,-15 0,-20 0,-1 0,-3 0,-4 0,0 0,-2 -1,-2 0,0 -1,-1 -1,-1 0,0 0,-1 0,-1 -1,-1 -1,-2 -2,-3 -1,-1 0,-3 -2,-3 0,0 0,1 0,1 -1,1 -2,1 -3,1 -2,0 -3,3 -3,4 -1,1 -1,2 -2,3 0,1 -1,2 -1,3 0,2 -1,3 -2,5 0,2 -1,3 -1,5 -1,1 -1,2 -1,3 0,1 0,2 0,3 0,0 0,1 -1,1 0,-1 0,-3 0,-3 0,-1 0,-2 0,-3 0,0 0,-1 -1,-1 0,0 0,0 0,-1 1,-4 2,-9 4,-13 1,-2 4,-3 5,-6 0,-1 0,-2 2,-2 1,-2 1,-4 2,-6 1,-2 2,-2 3,-1 2,2 3,5 4,7 2,1 3,3 5,4 1,1 3,1 3,2 1,2 0,5 1,7 0,3 0,7 1,10 -1,-2 -2,-5 -2,-8 0,-1 0,-3 -1,-4 0,1 0,1 -1,2 0,-1 0,-2 0,-3l0 0c-1,0 -1,0 -1,0 0,2 1,4 1,7 1,2 2,5 3,8 1,2 0,4 0,7 1,1 1,4 2,5 1,1 2,2 3,2 1,1 1,1 2,0 0,0 1,-1 1,-1 1,-1 1,-3 2,-4 0,0 1,-1 1,-2 1,-1 2,-2 3,-3 1,0 1,-1 2,-1 1,0 0,0 0,1 0,0 0,1 0,2l-1 0c-1,1 0,3 -1,4 -1,0 -1,-1 -1,-1 0,-1 0,-2 -1,-1 0,0 -1,2 -1,4 -1,0 -1,0 -1,0 0,1 -1,1 -1,1 0,1 -1,2 0,3 0,1 2,1 3,2 2,0 3,1 5,1 1,0 2,0 3,0 1,0 1,0 1,0 0,0 0,0 0,0l0 0c0,0 1,0 1,0 1,0 2,-1 2,-1 1,-1 4,-2 4,-3 0,-1 1,-2 1,-3 0,0 -4,-2 -6,-2 -1,0 -1,0 -1,0 -1,-1 -1,-1 -2,0 0,0 0,1 -1,1 0,-1 1,-2 0,-2 0,0 0,0 -1,0l0 -1c0,0 0,-1 0,-1 0,-1 0,-2 1,-3 0,0 0,-1 0,-1 2,1 3,3 5,5 2,1 5,0 6,2 2,1 5,1 7,2 1,0 4,1 1,2 -1,2 -3,3 -5,5 -1,1 -3,2 -2,4 2,1 4,0 5,0 3,0 5,1 8,1 1,0 3,1 3,-1 0,-1 -2,-3 0,-4 0,0 3,-2 2,-2 -1,-1 -2,-1 -2,-1 -1,-1 -1,-2 -1,-2 1,-1 2,0 3,0 2,1 4,1 5,2 1,1 2,2 2,3 1,1 0,3 2,3 1,0 3,0 3,1 0,2 -1,4 -3,3 -2,0 -3,0 -5,0 -2,0 -3,0 -5,1 -1,0 -2,0 -3,0 -1,0 -2,0 -3,0 -1,0 -2,-1 -4,-1 0,0 -1,0 -2,0 -1,0 -2,-1 -3,-1 -4,-1 -6,1 -8,3 -1,2 -3,3 -5,4l0 0c0,-1 -1,-3 -2,-4 -1,0 -1,-1 -2,-1 0,-1 0,0 -1,0 -1,1 -3,-1 -3,-2 -2,-1 -3,-2 -5,-3 0,-1 -1,-2 -2,-2 0,-1 0,-2 -1,-3 -1,-1 -2,0 -3,0 -1,1 -2,1 -2,1 -1,1 -2,1 -3,1 0,0 0,0 0,0 -1,0 -2,0 -3,1 -2,0 -3,1 -4,2 -1,1 -2,2 -3,3 -1,1 -2,1 -3,1 -1,0 -2,0 -3,-1 -2,0 -4,1 -7,1 -1,0 -2,0 -3,1 -1,0 -2,1 -2,1 0,0 -1,0 -1,1 0,0 -1,-1 -2,-1 -2,0 -4,-1 -7,-1 0,0 -1,1 -2,1l-8 -4c0,-3 0,-5 0,-7zm4 -12l0 0c2,-10 6,-21 13,-29 6,-7 13,-14 22,-17 11,-4 22,-5 33,-1 9,3 16,9 22,16 6,6 10,14 13,22 2,6 4,14 5,17 0,4 0,7 0,7 0,0 -1,0 -1,0 0,1 -1,1 -1,0 0,0 0,0 0,-1 0,0 0,0 0,-1 0,0 -1,-1 -1,-1 -1,-1 -2,-2 -3,-3 -1,0 -1,0 -2,-1 0,0 -1,0 -2,0 -2,-1 -8,-1 -8,-1 0,-1 -1,-3 -4,-3 -3,0 -3,1 -5,0 -2,-1 -8,-3 -8,-3 0,0 -3,-3 -4,-4 -2,-1 -4,-2 -6,-1 -2,2 -1,2 -2,3 -1,1 -4,3 -4,3 0,1 -3,5 -3,5 0,0 -3,-1 -4,-4 0,-2 1,-10 0,-14 0,-5 -1,-10 -1,-12 0,-2 -4,-4 -6,-5 -1,-1 -3,-4 -4,-6 -1,-2 -3,-4 -4,-4 -1,-1 -2,-1 -3,0 -1,2 -3,6 -4,7 -1,1 -1,2 -2,3 -1,2 -3,2 -4,6 -2,4 -5,14 -5,16 0,1 -1,7 -2,7 -1,0 -6,1 -8,3 -1,1 -3,2 -5,3 -2,1 -5,2 -5,2 1,-1 2,-9 3,-9zm52 -56c-34,0 -62,37 -62,82 0,45 28,82 63,82 35,0 63,-37 62,-82 0,-45 -28,-82 -63,-82zm12 33l-1 1 -2 -1 0 2 -1 0 1 1 0 1 1 0 1 1 1 -2 1 0 -1 -1 0 -2zm-3 -4l1 -1 1 1 0 -1 2 -1 -1 -1 0 -1 -2 0 -1 -1 0 2 -1 0 1 1 0 2zm9 10l1 0 1 1 1 -2 1 0 -1 -1 0 -2 -1 1 -1 -1 0 1 -2 0 1 1 0 2zm6 -14l1 -1 1 1 0 -1 2 0 -1 -1 0 -2 -1 1 -1 -1 -1 1 -1 0 1 1 0 2zm5 111c-1,0 -1,-1 -2,-1 0,1 1,1 1,2 0,0 0,-1 1,-1zm5 -10c0,0 0,1 0,1 0,0 0,0 1,1 0,-1 0,-1 0,-2 1,0 0,-1 -1,0zm-18 19c-1,-1 -1,-1 -2,-2 0,1 1,2 1,2 0,0 1,0 1,0zm-20 0c0,2 0,3 0,4 0,0 1,1 2,0 0,-1 0,-2 0,-3 0,-1 -1,-1 -2,-1zm-9 1c1,0 1,0 2,0 0,-1 0,-1 0,-2 -1,1 -1,1 -2,2zm-21 -19c-1,1 -1,1 -1,2 0,1 1,2 1,2 1,-1 2,-1 2,-2 1,-1 -1,-2 -2,-2zm-1 -3c1,-1 0,-2 0,-2 -1,0 -1,0 -2,0 1,1 1,2 2,2zm-2 -5c0,-1 0,-1 0,-2 -1,0 -1,1 -2,1 0,0 0,1 1,1 0,1 1,0 1,0zm40 -9c0,0 0,0 -1,1 1,0 1,0 1,0l0 0c0,0 0,-1 0,-1l0 0zm1 1l0 0c1,0 1,0 1,0 0,-1 0,-1 -1,-1l0 0c1,0 1,1 0,1zm-8 -1c-1,0 -1,0 -2,1 1,0 1,0 2,0l0 0c-1,0 -1,-1 0,-1l0 0zm1 1c0,0 0,0 1,0 -1,-1 -1,-1 -1,-1l0 0c0,0 0,1 0,1l0 0zm5 6l-4 0c1,1 2,1 4,0zm5 -7l0 0c-2,-2 -4,-2 -5,-1 -1,1 -2,2 -1,4l0 1c-1,-3 -1,-5 0,-6 2,-1 4,0 6,1l0 1zm-1 1l0 0c-2,-2 -3,-1 -4,-1 0,0 0,1 -1,1l0 -1c1,0 1,0 1,0 1,-1 2,-2 5,0l-1 1zm-4 0l0 0 0 0c1,-1 2,-2 4,0l0 0 0 0c-1,0 -2,1 -2,1 -1,0 -2,-1 -2,-1l0 0zm2 1l0 0c-1,0 -2,0 -3,-1l1 0c1,1 2,1 4,0l0 0c-1,1 -2,1 -2,1zm-1 5l0 0c-1,1 -2,1 -3,1 -1,0 -2,0 -3,-1 0,0 0,0 0,0 0,0 0,0 0,0l0 0 6 0 0 0c0,0 0,0 0,0 0,0 0,0 0,0zm-9 -6l0 0 0 0c1,1 3,1 4,0l0 0c0,1 -1,1 -2,1 -1,0 -1,0 -2,-1zm4 0l0 0 0 0c-1,0 -1,1 -2,1 0,0 -1,-1 -2,-1l0 0 0 0c2,-1 3,-1 4,0l0 0zm-5 -1l0 0c3,-2 4,-1 5,0 0,0 0,0 1,0l0 1c-1,0 -1,-1 -2,-1 0,0 -1,-1 -4,1l0 -1zm0 -1l0 0c2,-1 4,-2 5,-1 2,1 2,3 1,6l0 -1c0,-2 0,-3 -1,-4 -1,-1 -3,-1 -5,1l0 -1zm7 6l0 0c0,0 1,0 1,-1l0 0 0 0c0,1 1,1 1,1 0,0 0,0 0,0 0,-1 0,-1 0,-1l0 0c1,0 1,1 0,1 0,0 0,0 0,0 0,0 0,0 0,0 -1,0 -1,0 -1,0 0,0 -1,0 -1,0l0 0c0,0 -1,0 -1,0 0,0 0,0 -1,0 0,0 0,0 0,0 0,0 0,0 -1,0 0,0 0,-1 1,-1l0 0c0,0 0,0 0,1 0,0 0,0 0,0 0,0 1,0 1,-1l0 0 0 0c0,1 1,1 1,1zm16 6c-1,-4 -5,-4 -7,-6l0 0 9 -2 -9 -2 0 0c3,-2 6,-2 7,-6 -4,3 -5,2 -8,2l0 0 4 -6 -6 4 0 -1c0,-2 0,-3 2,-6 -4,0 -4,4 -6,6l0 1 -2 -10 -2 10 0 -1c-2,-2 -2,-6 -6,-6 2,3 2,4 2,6l0 1 -7 -4 5 6 -2 0c-1,0 -3,0 -6,-1 1,3 4,3 6,5l1 0 -9 2 9 2 0 0c-3,2 -6,2 -7,6 3,-2 5,-2 6,-2l1 0 -3 6 6 -4 0 0c0,3 1,4 -1,8 3,-1 3,-4 5,-7l0 0 2 8 2 -9 0 1c2,3 2,6 6,7 -2,-4 -2,-5 -2,-7l0 -1 6 4 -3 -6 1 0c1,0 3,0 6,2z"/>
  </g>
  <path class="fil1" d="M249 132c-12,0 -24,-4 -33,-13l9 -9c8,8 15,10 23,10 13,0 18,-4 18,-9 0,-3 -3,-7 -12,-9 -2,0 -12,-3 -13,-3 -13,-3 -23,-8 -23,-19 0,-11 10,-20 29,-20 12,0 22,3 30,11l-9 9c-6,-6 -12,-9 -20,-9 -13,0 -17,5 -17,8 0,4 3,6 15,9 2,0 10,2 11,3 15,3 22,11 22,20 0,10 -9,20 -30,21zm92 -2l-13 0 0 -3 0 0c-4,3 -10,4 -15,4 -11,0 -25,-4 -25,-17 0,-17 23,-19 37,-19 1,0 3,0 5,0l-2 -1c-1,-6 -5,-8 -13,-8 -5,0 -11,1 -16,5l-8 -8c9,-6 16,-8 24,-8 12,0 25,5 26,20l0 35zm-12 -24l0 0c0,0 -3,0 -3,0 -3,0 -6,0 -8,0 -3,0 -6,0 -9,1 -6,1 -9,3 -9,7 0,5 8,7 13,7 4,0 15,-1 15,-7l0 -7 1 -1zm79 24l-12 0 0 -33c0,-7 -2,-12 -13,-11 -8,0 -15,4 -15,12l1 32 -13 0 0 -54 12 0 0 5 1 0c3,-4 10,-6 16,-6 13,0 23,7 23,21l0 34zm52 -7c-5,5 -10,8 -16,8 -12,0 -18,-7 -18,-19l0 -25 0 -1 -7 0 0 -10 7 -1 -1 -1 0 -7 13 -7 0 14 -1 1 17 0 0 11 -17 0 1 1 0 25c0,5 2,8 6,8 3,0 6,-1 9,-5l7 8zm59 7l-12 0 0 -4 -1 0c-4,3 -10,5 -15,5 -11,0 -25,-4 -25,-18 0,-17 23,-18 37,-19 1,0 4,0 5,1l-2 -2c0,-6 -5,-8 -12,-8 -6,0 -11,1 -16,5l-8 -8c8,-6 15,-8 24,-8 12,0 25,5 25,21l0 35zm-11 -25l0 0c-1,0 -3,0 -4,0 -2,0 -5,0 -8,0 -3,0 -6,1 -9,1 -5,1 -8,4 -8,7 0,6 7,7 12,7 5,0 16,-1 15,-7l0 -7 2 -1zm116 13c-8,8 -17,12 -29,12 -24,0 -36,-14 -36,-35 -1,-21 12,-37 36,-37 12,0 21,4 28,11l-9 10c-5,-7 -10,-9 -19,-9 -17,0 -24,11 -24,25 0,13 7,24 24,24 9,0 15,-3 20,-9l9 8zm42 -32l-4 0c-10,0 -15,5 -15,16l0 27 -12 0 -1 -54 13 -1 0 9 0 0c3,-6 8,-9 16,-9l3 0 0 12zm61 43l-12 0 0 -5 0 0c-4,4 -10,6 -16,6 -16,0 -23,-9 -24,-22l0 -34 13 0 0 33c0,7 2,12 13,12 8,0 14,-5 14,-13l0 -32 12 0 0 55zm64 -1l-50 1 0 -9 26 -30 7 -5 0 0 -33 0 0 -11 49 0 0 8 -27 30 -7 6 0 0 34 0 1 10z"/>
  <path class="fil1" d="M246 192l-4 0 0 -4c0,0 0,0 0,0 -2,3 -6,4 -10,4 -10,0 -16,-6 -16,-16 0,-10 6,-16 16,-16 5,0 10,1 13,4l-3 4c-3,-3 -6,-4 -10,-4 -7,0 -11,5 -11,12 0,8 4,12 11,12 6,0 10,-4 10,-9l0 -1 -10 0 0 -4 14 0 0 18zm19 0c-8,0 -12,-5 -12,-13 0,-7 4,-12 12,-12 8,0 12,5 13,12 0,8 -5,13 -13,13zm0 -21l0 0c-5,0 -7,3 -7,8 0,5 2,9 7,9 6,0 8,-4 8,-9 0,-5 -2,-8 -8,-8zm31 21c-3,0 -5,-1 -7,-3l0 0 0 3 -5 0 0 -33 5 0 0 10 0 0c2,-1 4,-3 7,-3 8,0 12,6 12,13 0,8 -4,13 -12,13zm0 -21l0 0c-5,0 -7,3 -7,8 0,5 2,9 7,9 6,0 8,-4 8,-9 0,-5 -3,-8 -8,-8zm21 -7c-2,0 -3,-1 -3,-3 0,-2 1,-3 3,-3 2,0 3,1 3,3 0,2 -1,3 -3,3zm3 28l0 0 -5 0 0 -25 4 0 1 25zm31 -11l-20 0 0 1c1,3 3,6 8,6 2,0 5,-1 7,-3l3 3c-3,3 -6,4 -10,4 -9,0 -13,-6 -13,-13 0,-7 5,-13 13,-13 8,0 12,6 12,13 0,1 0,1 0,2zm-5 -4l0 0 0 0c-1,-4 -3,-7 -7,-7 -5,0 -7,3 -8,7l0 0 15 0zm25 -6l-2 0c-4,0 -7,2 -7,8l0 12 -5 0 0 -24 5 0 0 4 0 0c1,-3 4,-5 8,-5l1 0 0 5zm28 20l-5 0 0 -15c0,-3 -1,-6 -6,-6 -4,0 -7,2 -7,7l0 14 -5 0 0 -25 5 0 0 3 0 0c2,-2 4,-3 7,-3 7,0 11,3 11,10l0 15zm19 1c-8,0 -12,-6 -13,-13 0,-8 4,-13 13,-13 8,0 12,5 12,13 0,7 -4,13 -12,13zm0 -22l0 0c-6,0 -8,4 -8,9 0,5 2,8 8,8 5,0 7,-3 7,-8 0,-5 -2,-9 -7,-9zm55 21l-5 0 0 -3 0 0c-2,2 -4,3 -8,3 -8,0 -11,-5 -12,-12 0,-8 4,-13 12,-13 3,0 6,1 8,3l0 0 0 -11 4 0 1 33zm-12 -21l0 0c-6,0 -8,4 -8,9 0,5 2,8 8,8 5,0 7,-3 7,-8 0,-5 -2,-9 -7,-9zm43 10l-20 0 0 1c1,4 3,6 8,6 2,0 4,-1 6,-3l4 3c-3,3 -6,4 -10,4 -9,0 -13,-5 -13,-12 0,-8 5,-13 12,-13 9,0 13,5 13,13 0,0 0,1 0,1zm-5 -4l0 0 0 0c-1,-4 -3,-6 -8,-6 -4,0 -6,2 -7,6l0 0 15 0zm29 15l-4 0 -1 -33 5 0 0 33zm30 0l-5 0 0 -2 0 0c-2,1 -5,2 -7,2 -5,0 -11,-2 -11,-8 0,-8 10,-8 16,-8 1,0 2,0 3,0l-1 0c0,-1 0,-1 0,-1 0,-3 -3,-4 -6,-4 -3,0 -6,0 -8,2l-3 -3c4,-3 7,-4 11,-4 5,0 11,2 11,10l0 16zm-4 -12l0 0c-1,0 -2,0 -3,0 -1,0 -2,0 -3,0 -2,0 -3,0 -5,1 -2,0 -4,1 -4,3 0,3 4,4 7,4 2,0 7,-1 7,-4l0 -4 1 0zm37 12c-3,0 -6,-1 -7,-3l0 0 0 11 -5 0 0 -33 4 0 0 2 1 0c1,-2 4,-3 7,-3 8,0 12,6 12,13 0,7 -4,13 -12,13zm0 -22l0 0c-6,0 -8,4 -8,9 0,5 2,9 8,9 5,0 7,-4 7,-9 0,-5 -2,-9 -7,-9zm32 1l-2 0c-4,0 -7,2 -7,8l0 12 -4 0 0 -24 4 -1 0 4 0 0c2,-2 5,-4 8,-4l1 0 0 5zm16 21c-8,0 -12,-6 -12,-13 0,-7 4,-13 12,-13 8,0 12,5 12,13 0,7 -4,13 -12,13zm0 -22l0 0c-5,0 -7,4 -7,9 0,5 2,9 7,8 6,0 8,-3 8,-8 0,-5 -3,-9 -8,-9zm41 -4l-10 25 -5 0 -11 -25 6 0 6 17 1 3 1 0 1 -3 6 -17 5 0zm8 -2c-2,0 -3,-2 -3,-3 0,-2 1,-3 3,-3 1,0 2,1 2,3 0,1 -1,3 -2,3zm2 27l0 0 -5 0 0 -25 5 0 0 25zm31 0l-5 0 0 -15c0,-4 -1,-6 -6,-6 -4,0 -7,2 -7,6l0 15 -5 0 0 -25 5 0 0 3 0 0c1,-2 4,-3 7,-3 7,0 11,3 11,9l0 16zm28 -4c-2,3 -6,4 -9,4 -9,0 -13,-5 -13,-12 0,-8 5,-13 13,-13 4,0 7,1 9,3l-3 3c-2,-2 -4,-2 -6,-2 -6,0 -8,4 -8,9 0,4 2,8 8,8 2,0 4,-1 6,-3l3 3zm8 -24c-1,0 -3,-1 -3,-3 0,-1 2,-3 3,-3 2,0 3,2 3,3 0,2 -1,3 -3,3zm3 28l0 0 -5 0 0 -25 5 0 0 25zm29 0l-4 0 0 -2 0 0c-3,1 -5,2 -8,2 -5,0 -11,-2 -11,-8 0,-7 10,-8 17,-8 0,0 2,0 2,0l0 0c0,0 0,-1 0,-1 -1,-3 -3,-4 -7,-4 -2,0 -5,0 -7,2l-3 -3c3,-3 6,-4 10,-4 6,0 11,3 11,10l0 16zm-4 -12l0 0c0,0 -1,0 -2,0 -1,0 -3,0 -4,0 -1,0 -3,0 -4,1 -3,0 -4,1 -4,3 0,3 4,4 6,4 2,0 8,-1 8,-4l0 -3 0 -1z"/>
 </g>
</svg>
